<svg xmlns="http://www.w3.org/2000/svg" viewBox="0 0 948 291.5"><defs><style>.cls-1{fill:#fff}</style></defs><g id="Layer_2" data-name="Layer 2"><g id="Layer_1-2" data-name="Layer 1"><path d="M53.9 231.5A19 19 0 0 0 64.2 214c0-13-9.8-21.9-24.3-21.9H8.4v80.7h33.9c14.8 0 24.3-8.7 24.3-22.2a20 20 0 0 0-12.7-19.1zm-14-4.8H20.7V203H40c7 0 11.7 4.6 11.7 11.9 0 7-4.6 11.7-11.7 11.7zm2.4 35.4H20.7v-24.6h21.6c7.1 0 11.7 4.7 11.7 12.1s-4.6 12.5-11.7 12.5zm107.5-69.9h-7.3l-34.7 80.6h13.4l6.8-16.5h36l6.8 16.5h13.7L150 192.4zm9.6 52.7h-26.8l13.4-32.6zM289 217c0-14.7-10.5-24.9-25.6-24.9h-32v80.7h12.3V242h16l18.4 30.8h14l-20-32a24.5 24.5 0 0 0 16.9-23.9zm-12.6.2c0 8.5-5.1 14-13 14h-19.7V203h19.7c7.9 0 13 5.5 13 14zm103.1 26.7l-33.1-51.7h-6.1v80.6h11.9v-50.1l24.2 37.2.2.3h5.5l24.3-37.5v50.1h12.1v-80.6h-6.1l-32.9 51.7zm106.4-6.2h37.2v-11.3h-37.2v-22.9h38.4v-11.3h-50.8v80.6h52v-11.2h-39.6v-23.9zM594 192.2v57.4c0 8.2-4.8 13-12.8 13a28.1 28.1 0 0 1-14-3.9l-.7-.4V270l.2.2c3.9 2.5 9 3.8 14.9 3.8 14.7 0 24.6-9.8 24.6-24.4v-57.4zM38.2 146a7.3 7.3 0 0 0 7.3 7.3A7.4 7.4 0 0 0 53 146a7.3 7.3 0 1 0-14.7 0z" class="cls-1"/><path d="M35.9 169.2l.8-10.3h-.5c-17.3 0-23.4-8.2-23.4-15.1 0-6.7 2.7-15.5 26.6-15.5h410.5V94.9c0-19-9.6-29.1-27.9-29.1-22.4 0-32.4 15.9-32.4 31.7 0 9.8 2.5 16.5 7.9 20.8a44.5 44.5 0 0 0-5.4-.4H65c.5-5 .7-9.5.7-13.4 0-26.2-12-37.8-39.1-37.8a127.5 127.5 0 0 0-15.3 1H11V78h.5a101.3 101.3 0 0 1 14.2-1C45 77 53 85.2 53 105.3a115 115 0 0 1-.9 12.6H40c-33 0-40 14.6-40 26.8 0 11.8 9.3 24.5 35.4 24.5zm366.6-72.4c0-12.7 7-20.7 18.5-20.7 11 0 16.4 6.8 16.4 20.7V118h-12.2c-15.7 0-22.8-6.5-22.8-21zm90.1 31.6v-.1h101.6V67.2h-12.8v50.7h-88.8V67.2h-12.8v62.3c0 15-4.9 21.3-16.5 21.3a40.5 40.5 0 0 1-12.7-2.1l-.6-.2-1.4 10.6.4.1a47.4 47.4 0 0 0 13.4 2c20.4 0 30.2-10.8 30.2-32.8zm94.4 10.1a7.4 7.4 0 0 0 0 14.8 7.4 7.4 0 0 0 7.4-7.4 7.3 7.3 0 0 0-7.4-7.4zm163.1 66.8h33.2l-8.8 67H757l-4.8-56-2.1-11zm152.7 9.3c1.3 1.2-7.7 47-7.7 47h-18.9s1.7-35.8 0-36.8l-16-8 .5-2.7 2.7-13 17.4-11.1 1-.7z" class="cls-1"/><path d="M948 90l-9 2.6-25 7.4-14.6 65.3-15.4 10-4.5 3-4.5 2.8-21 13.6-3.7 17.3-1 5.4-1.2 5.3-14.2 68.4h-17.7l-4.8-96.4h-72.2l-.4 8.2-4.4 88.6-20.2-.4L696 146.7h-19l4.7-3 5.8-3.8 1-.6 17.5-11.5 1.2 2c14 23.1 14 23.1 15 24.1l3 2.8h103.2l-9.3-15.3L783.5 83l-1.1-2-2-1.3-.8-.5L807.4 61c1.3 1.4 51.6 84.1 51.6 84.1l13.9-45.7V60.6l1-1 6-6 6-6 1-1v14l56-.2a3.9 3.9 0 0 1 1.5.3z" class="cls-1"/><path d="M642 0c-.3-.9 118.8 79 118.8 79l4.8 3.1 4.9 3.2 4.5 3 35.5 58.4h-81.3l-14.8-24.5-2.7-4.5-2.7-4.6-6.4-10.5a.6.6 0 0 1 .5-1 .8.8 0 0 1 .3 0l14 5.8 6 2.5 6 2.4c19 7.7 41.3 16.9 41.7 16.9l-37.7-19.5-5.4-2.8-5.4-2.8L694 88.7l-22.2-37s53 31.4 68.9 40.6l5 3c1.3.8 2 1 2 1l-1.7-1.2-4.6-3.3-80-59.2z" class="cls-1"/></g></g></svg>